<svg xmlns="http://www.w3.org/2000/svg" xmlns:xlink="http://www.w3.org/1999/xlink" width="2000" zoomAndPan="magnify" viewBox="0 0 1500 1499.999933" height="2000" preserveAspectRatio="xMidYMid meet" version="1.0"><defs><clipPath id="491bd856bf"><path d="M 0 43.5 L 0 1456.5 C 0 1480.523438 19.476562 1500 43.5 1500 L 1456.5 1500 C 1480.523438 1500 1500 1480.523438 1500 1456.5 L 1500 43.5 C 1500 19.476562 1480.523438 0 1456.5 0 L 43.5 0 C 19.476562 0 0 19.476562 0 43.5 Z M 0 43.5 " clip-rule="nonzero"/></clipPath><clipPath id="e55b926424"><path d="M 373 220 L 1127 220 L 1127 1214 L 373 1214 Z M 373 220 " clip-rule="nonzero"/></clipPath><clipPath id="d40af3a158"><path d="M 0 43.5 L 0 1456.5 C 0 1480.523438 19.476562 1500 43.5 1500 L 1456.5 1500 C 1480.523438 1500 1500 1480.523438 1500 1456.5 L 1500 43.5 C 1500 19.476562 1480.523438 0 1456.5 0 L 43.5 0 C 19.476562 0 0 19.476562 0 43.5 Z M 0 43.5 " clip-rule="nonzero"/></clipPath></defs><g clip-path="url(#491bd856bf)"><path fill="#0a3048" d="M 1499.4375 0 C 1499.90625 499.78125 1500.09375 999.65625 1499.90625 1499.8125 C 999.84375 1500.09375 499.875 1500 0 1499.4375 L 0 0 L 1499.53125 0 Z M 1499.4375 0 " fill-opacity="1" fill-rule="nonzero"/></g><g clip-path="url(#e55b926424)"><g clip-path="url(#d40af3a158)"><path fill="#f78220" d="M 576.375 807.5625 L 661.21875 870.09375 L 473.25 1010.34375 L 473.71875 1114.40625 L 707.25 1114.21875 L 707.4375 972.65625 L 841.78125 972.46875 L 841.78125 1114.21875 L 1026.75 1113.75 L 1026.5625 1016.15625 L 390.9375 543.75 C 384.1875 539.4375 378.46875 536.90625 375.5625 531.28125 L 781.875 232.21875 L 981.28125 378.46875 L 981.5625 220.5 L 1087.40625 297.84375 L 1087.59375 457.59375 L 1126.21875 486.28125 L 1126.5 779.625 L 1026.65625 706.40625 L 1026.65625 537.65625 L 782.34375 357.375 L 544.59375 532.59375 L 1126.21875 965.34375 L 1126.40625 1213.875 L 373.5 1213.875 L 373.3125 958.6875 L 576.46875 807.5625 Z M 576.375 807.5625 " fill-opacity="1" fill-rule="nonzero"/></g></g></svg>
